<svg width="80" height="43" viewBox="0 0 80 43" fill="none" xmlns="http://www.w3.org/2000/svg">
<path d="M2.36328 23.0391C1.54297 23.0391 0.828125 22.9531 0.21875 22.7812V19.7578C0.84375 19.9141 1.41406 19.9922 1.92969 19.9922C2.72656 19.9922 3.29688 19.7422 3.64062 19.2422C3.98438 18.75 4.15625 17.9766 4.15625 16.9219V0.867188H7.78906V16.8984C7.78906 18.8984 7.33203 20.4219 6.41797 21.4688C5.50391 22.5156 4.15234 23.0391 2.36328 23.0391ZM27.6523 9.41016C27.6523 12.2461 26.9492 14.4258 25.543 15.9492C24.1367 17.4727 22.1211 18.2344 19.4961 18.2344C16.8711 18.2344 14.8555 17.4727 13.4492 15.9492C12.043 14.4258 11.3398 12.2383 11.3398 9.38672C11.3398 6.53516 12.043 4.35938 13.4492 2.85938C14.8633 1.35156 16.8867 0.597656 19.5195 0.597656C22.1523 0.597656 24.1641 1.35547 25.5547 2.87109C26.9531 4.38672 27.6523 6.56641 27.6523 9.41016ZM15.1484 9.41016C15.1484 11.3242 15.5117 12.7656 16.2383 13.7344C16.9648 14.7031 18.0508 15.1875 19.4961 15.1875C22.3945 15.1875 23.8438 13.2617 23.8438 9.41016C23.8438 5.55078 22.4023 3.62109 19.5195 3.62109C18.0742 3.62109 16.9844 4.10938 16.25 5.08594C15.5156 6.05469 15.1484 7.49609 15.1484 9.41016ZM36.5352 7.92188L40.1094 0.867188H44.0234L38.3398 11.332V18H34.7305V11.4492L29.0469 0.867188H32.9844L36.5352 7.92188ZM30.8398 33.2695C30.8398 36.0898 30.0352 38.25 28.4258 39.75C26.8242 41.25 24.5078 42 21.4766 42H16.625V24.8672H22.0039C24.8008 24.8672 26.9727 25.6055 28.5195 27.082C30.0664 28.5586 30.8398 30.6211 30.8398 33.2695ZM27.0664 33.3633C27.0664 29.6836 25.4414 27.8438 22.1914 27.8438H20.2578V39H21.8164C25.3164 39 27.0664 37.1211 27.0664 33.3633ZM44.2578 42H34.3906V24.8672H44.2578V27.8438H38.0234V31.6055H43.8242V34.582H38.0234V39H44.2578V42ZM57.7109 42H47.8438V24.8672H57.7109V27.8438H51.4766V31.6055H57.2773V34.582H51.4766V39H57.7109V42ZM64.9297 32.9297H66.125C67.2422 32.9297 68.0781 32.7109 68.6328 32.2734C69.1875 31.8281 69.4648 31.1836 69.4648 30.3398C69.4648 29.4883 69.2305 28.8594 68.7617 28.4531C68.3008 28.0469 67.5742 27.8438 66.582 27.8438H64.9297V32.9297ZM73.1328 30.2109C73.1328 32.0547 72.5547 33.4648 71.3984 34.4414C70.25 35.418 68.6133 35.9062 66.4883 35.9062H64.9297V42H61.2969V24.8672H66.7695C68.8477 24.8672 70.4258 25.3164 71.5039 26.2148C72.5898 27.1055 73.1328 28.4375 73.1328 30.2109ZM75.582 40.3242C75.582 39.668 75.7578 39.1719 76.1094 38.8359C76.4609 38.5 76.9727 38.332 77.6445 38.332C78.293 38.332 78.793 38.5039 79.1445 38.8477C79.5039 39.1914 79.6836 39.6836 79.6836 40.3242C79.6836 40.9414 79.5039 41.4297 79.1445 41.7891C78.7852 42.1406 78.2852 42.3164 77.6445 42.3164C76.9883 42.3164 76.4805 42.1445 76.1211 41.8008C75.7617 41.4492 75.582 40.957 75.582 40.3242Z" fill="#7CDEDC"/>
</svg>
